<?xml version="1.0" encoding="UTF-8"?>
<svg width="1671px" height="1279px" viewBox="0 0 1671 1279" version="1.1" xmlns="http://www.w3.org/2000/svg" xmlns:xlink="http://www.w3.org/1999/xlink">
    <!-- Generator: Sketch 50.2 (55047) - http://www.bohemiancoding.com/sketch -->
    <title>Beukeman__Copy</title>
    <desc>Created with Sketch.</desc>
    <defs>
        <polygon id="path-1" points="0.06 0.97 1521.89 0.97 1521.89 1278.94 0.06 1278.94"></polygon>
    </defs>
    <g id="Beukeman__Copy" stroke="none" stroke-width="1" fill="none" fill-rule="evenodd">
        <path d="M211.069,1216.38 L211.069,1213.75 C211.069,1209.1 209.445,1205.4 206.201,1202.63 C202.956,1199.87 197.826,1198.49 190.811,1198.49 L171.079,1198.49 L171.079,1231.77 L190.811,1231.77 C197.826,1231.77 202.956,1230.37 206.201,1227.56 C209.445,1224.76 211.069,1221.03 211.069,1216.38 Z M193.968,1182.57 C206.946,1182.57 216.877,1185.42 223.762,1191.12 C230.646,1196.83 234.089,1204.37 234.089,1213.75 L234.089,1216.38 C234.089,1225.76 230.646,1233.31 223.762,1239.01 C216.877,1244.71 206.946,1247.56 193.968,1247.56 L171.079,1247.56 L171.079,1277.29 L148.586,1277.29 L148.586,1182.57 L193.968,1182.57 Z" id="Fill-1" fill="#2F7AB2"></path>
        <polygon id="Fill-2" fill="#2F7AB2" points="482.571 1277.29 505.065 1277.29 505.065 1182.57 482.571 1182.57"></polygon>
        <g id="Group-10">
            <mask id="mask-2" fill="white">
                <use xlink:href="#path-1"></use>
            </mask>
            <g id="Clip-4"></g>
            <polyline id="Fill-3" fill="#2F7AB2" mask="url(#mask-2)" points="829.448 1182.57 852.467 1182.57 815.371 1277.29 789.721 1277.29 751.836 1182.57 776.435 1182.57 803.534 1254 829.448 1182.57"></polyline>
            <path d="M1165.54,1231.25 L1165.54,1228.61 C1165.54,1219.32 1163.1,1211.87 1158.24,1206.25 C1153.37,1200.64 1146.9,1197.83 1138.84,1197.83 C1130.77,1197.83 1124.28,1200.64 1119.37,1206.25 C1114.46,1211.87 1112,1219.32 1112,1228.61 L1112,1231.25 C1112,1240.54 1114.46,1248 1119.37,1253.61 C1124.28,1259.22 1130.77,1262.03 1138.84,1262.03 C1146.9,1262.03 1153.37,1259.22 1158.24,1253.61 C1163.1,1248 1165.54,1240.54 1165.54,1231.25 Z M1138.84,1180.86 C1154.01,1180.86 1166.13,1185.27 1175.21,1194.08 C1184.28,1202.9 1188.82,1214.41 1188.82,1228.61 L1188.82,1231.25 C1188.82,1245.45 1184.28,1256.96 1175.21,1265.78 C1166.13,1274.59 1154.01,1279 1138.84,1279 C1123.58,1279 1111.41,1274.59 1102.33,1265.78 C1093.26,1256.96 1088.72,1245.45 1088.72,1231.25 L1088.72,1228.61 C1088.72,1214.41 1093.26,1202.9 1102.33,1194.08 C1111.41,1185.27 1123.58,1180.86 1138.84,1180.86 Z" id="Fill-5" fill="#2F7AB2" mask="url(#mask-2)"></path>
            <polyline id="Fill-6" fill="#2F7AB2" mask="url(#mask-2)" points="1521.89 1182.57 1521.89 1199.15 1486.9 1199.15 1486.9 1277.29 1464.53 1277.29 1464.53 1199.15 1429.55 1199.15 1429.55 1182.57 1521.89 1182.57"></polyline>
            <polyline id="Fill-7" fill="#2F7AB2" mask="url(#mask-2)" points="962.501 170.519 761.249 0.97 761.249 659.712 909.223 784.376 909.223 168.825 962.501 213.711 962.501 366.666 1110.49 492.675 1110.49 295.196 962.501 170.519"></polyline>
            <polyline id="Fill-8" fill="#122235" mask="url(#mask-2)" points="559.982 309.667 559.982 490.151 707.971 614.827 707.971 419.006 559.982 294.539 559.982 309.667"></polyline>
            <path d="M67.772,952.009 C67.772,958.844 71.573,964.572 79.177,969.2 C86.781,973.827 96.254,977.192 107.607,979.283 C118.956,981.378 131.297,984.297 144.634,988.042 C157.966,991.793 170.307,995.926 181.661,1000.439 C193.009,1004.96 202.488,1012.18 210.091,1022.1 C217.696,1032.01 221.496,1044.14 221.496,1058.46 C221.496,1082.26 211.743,1100.39 192.24,1112.84 C172.735,1125.3 146.891,1131.52 114.716,1131.52 C52.564,1131.52 14.325,1108.16 0,1061.43 L52.895,1053.5 C62.813,1079.51 82.648,1092.51 112.402,1092.51 C126.726,1092.51 138.461,1089.65 147.609,1083.91 C156.752,1078.19 161.328,1070.81 161.328,1061.77 C161.328,1054.93 158.52,1049.15 152.899,1044.41 C147.279,1039.67 140.006,1036.04 131.079,1033.5 C122.155,1030.97 112.288,1028.54 101.492,1026.23 C90.69,1023.91 79.889,1021.16 69.093,1017.96 C58.292,1014.77 48.432,1010.85 39.506,1006.22 C30.579,1001.6 23.306,995.041 17.687,986.557 C12.067,978.072 9.256,967.877 9.256,955.977 C9.256,933.494 19.225,916.031 39.175,903.576 C59.119,891.127 83.749,884.9 113.063,884.9 C141.049,884.9 163.86,890.246 181.494,900.932 C199.125,911.625 210.917,926.553 216.868,945.727 L164.965,953.991 C157.032,932.616 140.171,921.923 114.385,921.923 C100.499,921.923 89.26,924.736 80.664,930.357 C72.069,935.974 67.772,943.196 67.772,952.009" id="Fill-9" fill="#122235" mask="url(#mask-2)"></path>
        </g>
        <path d="M481.01,889.197 L537.541,889.197 L537.541,1032.67 C537.541,1062.21 527.237,1086.06 506.631,1104.25 C486.021,1122.43 456.986,1131.52 419.52,1131.52 C382.049,1131.52 352.957,1122.43 332.243,1104.25 C311.525,1086.06 301.168,1062.21 301.168,1032.67 L301.168,889.197 L357.699,889.197 L357.699,1022.75 C357.699,1043.47 362.932,1059.67 373.403,1071.35 C383.868,1083.04 399.241,1088.87 419.52,1088.87 C439.794,1088.87 455.11,1083.04 465.472,1071.35 C475.828,1059.67 481.01,1043.47 481.01,1022.75 L481.01,889.197" id="Fill-11" fill="#122235"></path>
        <path d="M793.747,1059.45 L793.747,1053.83 C793.747,1043.47 790.054,1035.71 782.672,1030.52 C775.285,1025.35 763.219,1022.75 746.474,1022.75 L675.727,1022.75 L675.727,1089.21 L746.474,1089.21 C763.663,1089.21 775.839,1086.89 783.003,1082.26 C790.162,1077.63 793.747,1070.03 793.747,1059.45 Z M741.515,927.215 L675.727,927.215 L675.727,988.042 L743.827,988.042 C768.953,988.042 781.517,978.68 781.517,959.942 L781.517,953.991 C781.517,936.142 768.178,927.215 741.515,927.215 Z M811.27,1000.937 C838.157,1011.3 851.601,1029.59 851.601,1055.81 L851.601,1062.76 C851.601,1105.73 819.312,1127.22 754.739,1127.22 L619.196,1127.22 L619.196,889.197 L747.464,889.197 C777.657,889.197 799.915,894.708 814.244,905.727 C828.568,916.748 835.734,931.735 835.734,950.686 L835.734,957.297 C835.734,976.255 827.576,990.802 811.27,1000.937 Z" id="Fill-12" fill="#122235"></path>
        <polyline id="Fill-13" fill="#122235" points="1139.88 889.197 1139.88 930.85 1051.94 930.85 1051.94 1127.22 995.74 1127.22 995.74 930.85 907.802 930.85 907.802 889.197 1139.88 889.197"></polyline>
        <polyline id="Fill-14" fill="#122235" points="1269.47 1085.57 1399.06 1085.57 1399.06 1127.22 1212.93 1127.22 1212.93 889.197 1269.47 889.197 1269.47 1085.57"></polyline>
        <polyline id="Fill-15" fill="#122235" points="1471.13 1127.22 1471.13 889.197 1667.17 889.197 1667.17 929.197 1527.66 929.197 1527.66 984.736 1653.94 984.736 1653.94 1021.76 1527.66 1021.76 1527.66 1087.22 1670.47 1087.22 1670.47 1127.22 1471.13 1127.22"></polyline>
    </g>
</svg>